<svg width="17" height="17" viewBox="0 0 17 17" fill="none" xmlns="http://www.w3.org/2000/svg">
<path d="M13.6739 0C15.5217 0 17 1.47826 17 3.32609V13.6739C17 15.5217 15.5217 17 13.6739 17H3.32609C1.47826 17 0 15.5217 0 13.6739V3.32609C0 1.47826 1.47826 0 3.32609 0H13.6739ZM8.5 3.91739C5.91304 3.91739 3.91739 5.98696 3.91739 8.5C3.91739 11.087 5.98696 13.0826 8.5 13.0826C11.087 13.0826 13.0826 11.013 13.0826 8.5C13.0826 5.91304 11.087 3.91739 8.5 3.91739ZM8.5 4.95217C10.4217 4.95217 12.0478 6.50435 12.0478 8.5C12.0478 10.4217 10.4957 12.0478 8.5 12.0478C6.57826 12.0478 4.95217 10.4957 4.95217 8.5C4.95217 6.57826 6.57826 4.95217 8.5 4.95217ZM13.6739 2.21739C13.0826 2.21739 12.5652 2.73478 12.5652 3.32609C12.5652 3.91739 13.0826 4.43478 13.6739 4.43478C14.2652 4.43478 14.7826 3.91739 14.7826 3.32609C14.7826 2.73478 14.2652 2.21739 13.6739 2.21739Z" fill="black"/>
</svg>
