<svg width="18" height="17" viewBox="0 0 18 17" fill="none" xmlns="http://www.w3.org/2000/svg">
<path fill-rule="evenodd" clip-rule="evenodd" d="M8.97222 4.00714V6.07143C10.7667 2.55 17.7052 2.42857 17.9444 7.65V7.89286V17H14.3556V9.71429C14.3556 4.61429 9.21148 6.07143 8.97222 9.47143V9.71429V17H5.38333V4.00714H8.97222V6.07143V4.00714ZM3.58889 4.25V17H0V4.25H3.58889ZM1.79444 0C2.75148 0 3.58889 0.85 3.58889 1.82143C3.58889 2.79286 2.75148 3.64286 1.79444 3.64286C0.837407 3.64286 0 2.79286 0 1.82143C0 0.85 0.837407 0 1.79444 0Z" fill="black"/>
</svg>
