<svg width="71" height="9" viewBox="0 0 71 9" fill="none" xmlns="http://www.w3.org/2000/svg">
<path d="M-6.24657e-05 8.76172V0.181718H4.06194C5.99994 0.181718 7.34094 1.35472 7.34094 3.04372C7.34094 4.73572 5.99394 5.91472 4.06194 5.91472H1.89594V8.76172H-6.24657e-05ZM1.89594 4.34872H3.95994C4.88394 4.34872 5.44494 3.85672 5.44494 3.04372C5.44494 2.23672 4.88994 1.74772 3.97494 1.74772H1.89594V4.34872ZM8.46556 8.76172H6.48556L9.44356 0.181718H12.1016L15.0176 8.76172H12.9986L12.4226 6.87472H9.04756L8.46556 8.76172ZM9.52756 5.32672H11.9516L10.7486 1.37272L9.52756 5.32672ZM15.0351 5.28172V0.181718H16.9311V5.14972C16.9311 6.61072 17.5881 7.31572 18.7791 7.31572C19.9671 7.31572 20.6271 6.61072 20.6271 5.14972V0.181718H22.5231V5.28172C22.5231 7.59172 20.9991 8.94172 18.7791 8.94172C16.5561 8.94172 15.0351 7.59172 15.0351 5.28172ZM23.2968 0.181718H25.1928V7.14772H29.0928V8.76172H23.2968V0.181718ZM38.424 0.181718V1.79572H34.392V3.83272H38.076V5.39872H34.392V8.76172H32.496V0.181718H38.424ZM40.9428 8.76172H39.0468V0.178719H43.2918C45.2178 0.178719 46.3908 1.18972 46.3908 2.77372C46.3908 4.15972 45.4578 5.06872 44.0118 5.11372C44.6898 5.16172 45.2148 5.62372 45.5898 6.46372L46.6218 8.76172H44.5188L43.4778 6.46972C43.1718 5.79172 42.8958 5.60572 42.1878 5.60572H40.9428V8.76172ZM40.9428 4.07572H43.0728C43.9698 4.07572 44.4948 3.64072 44.4948 2.89072C44.4948 2.15272 43.9848 1.74472 43.0698 1.74472H40.9428V4.07572ZM46.9373 4.47172C46.9373 1.77772 48.6593 0.00171852 51.1073 0.00171852C53.5553 0.00171852 55.2803 1.77772 55.2803 4.47172C55.2803 7.16572 53.5553 8.94172 51.1073 8.94172C48.6593 8.94172 46.9373 7.16572 46.9373 4.47172ZM48.8453 4.47172C48.8453 6.30472 49.6673 7.31572 51.1073 7.31572C52.5473 7.31572 53.3723 6.30472 53.3723 4.47172C53.3723 2.63872 52.5473 1.62772 51.1073 1.62772C49.6673 1.62772 48.8453 2.63872 48.8453 4.47172ZM59.4915 0.0047183C61.6935 0.0047183 63.0645 1.09372 63.0645 2.88772H61.2465C61.2465 2.06272 60.5355 1.54672 59.4675 1.54672C58.5735 1.54672 57.7365 1.90372 57.7365 2.62672C57.7365 3.31072 58.4085 3.42172 59.6655 3.60772L60.0165 3.65872C61.4505 3.87172 63.3525 4.15372 63.3525 6.19072C63.3525 7.99372 61.8645 8.94172 59.5695 8.94172C57.0975 8.94172 55.7175 7.84072 55.7175 5.97772H57.5355C57.5355 6.86872 58.3065 7.39972 59.5575 7.39972C60.6225 7.39972 61.4745 7.01272 61.4745 6.22972C61.4745 5.47972 60.7815 5.37472 59.6055 5.20972L59.1525 5.14372C57.7395 4.94572 55.8555 4.68772 55.8555 2.73472C55.8555 0.952718 57.4335 0.0047183 59.4915 0.0047183ZM70.7175 0.181718V1.79572H68.0535V8.76172H66.1575V1.79572H63.4935V0.181718H70.7175Z" fill="white"/>
</svg>
